<?xml version="1.0" encoding="UTF-8" standalone="no"?>
<svg
   version="1.0"
   width="1280.000000pt"
   height="640.000000pt"
   viewBox="0 0 1280.000000 640.000000"
   preserveAspectRatio="xMidYMid meet"
   id="svg8"
   sodipodi:docname="bio.svg"
   inkscape:export-filename="/home/aijjeh/Documents/GitHub/aidd_new/reports/beamer_presentations/Ijjeh_seminar_June_2022/figures/real_neuron.png"
   inkscape:export-xdpi="600"
   inkscape:export-ydpi="600"
   inkscape:version="1.1 (1:1.1+202105261517+ce6663b3b7)"
   xmlns:inkscape="http://www.inkscape.org/namespaces/inkscape"
   xmlns:sodipodi="http://sodipodi.sourceforge.net/DTD/sodipodi-0.dtd"
   xmlns="http://www.w3.org/2000/svg"
   xmlns:svg="http://www.w3.org/2000/svg">
  <defs
     id="defs12">
    <marker
       style="overflow:visible;"
       id="Arrow2Lend"
       refX="0.0"
       refY="0.0"
       orient="auto"
       inkscape:stockid="Arrow2Lend"
       inkscape:isstock="true">
      <path
         transform="scale(1.1) rotate(180) translate(1,0)"
         d="M 8.7185878,4.0337352 L -2.2072895,0.016013256 L 8.7185884,-4.0017078 C 6.9730900,-1.6296469 6.9831476,1.6157441 8.7185878,4.0337352 z "
         style="fill-rule:evenodd;fill:context-stroke;stroke-width:0.62500000;stroke-linejoin:round;"
         id="path9278" />
    </marker>
  </defs>
  <sodipodi:namedview
     id="namedview10"
     pagecolor="#ffffff"
     bordercolor="#666666"
     borderopacity="1.0"
     inkscape:pageshadow="2"
     inkscape:pageopacity="0.0"
     inkscape:pagecheckerboard="0"
     inkscape:document-units="pt"
     showgrid="false"
     inkscape:zoom="1.6710937"
     inkscape:cx="639.40159"
     inkscape:cy="369.51847"
     inkscape:window-width="1848"
     inkscape:window-height="1016"
     inkscape:window-x="72"
     inkscape:window-y="27"
     inkscape:window-maximized="1"
     inkscape:current-layer="svg8" />
  <metadata
     id="metadata2">
Created by potrace 1.15, written by Peter Selinger 2001-2017
</metadata>
  <g
     transform="matrix(0.02041457,0,0,-0.02041457,477.38551,277.54828)"
     fill="#000000"
     stroke="none"
     id="g6"
     inkscape:export-filename="/home/aijjeh/Documents/GitHub/aidd_new/reports/beamer_presentations/Ijjeh_seminar_June_2022/figures/real_neuron.png"
     inkscape:export-xdpi="600"
     inkscape:export-ydpi="600">
    <path
       d="m 3232,6292 c -17,-110 -76,-379 -123,-567 -28,-112 -38,-170 -34,-194 9,-45 46,-119 163,-320 52,-91 113,-203 136,-250 43,-91 45,-104 30,-236 -8,-77 3,-140 81,-460 77,-316 85,-355 87,-429 1,-51 -2,-61 -22,-78 -46,-37 -135,2 -337,148 -208,151 -243,183 -279,249 -36,64 -126,328 -194,565 -62,219 -109,360 -138,413 -25,46 -25,51 -13,109 7,34 30,118 51,187 21,69 48,163 59,208 26,102 28,230 5,276 l -17,32 -61,-66 c -34,-37 -96,-124 -140,-200 -84,-142 -123,-189 -153,-189 -48,0 -109,77 -219,277 -75,138 -154,252 -214,308 -32,30 -32,30 -25,5 12,-43 95,-231 153,-345 82,-164 220,-460 254,-545 42,-105 55,-146 69,-218 11,-58 10,-65 -8,-90 -49,-66 -175,-66 -570,-3 -265,43 -405,52 -437,28 -17,-13 -17,-14 7,-30 28,-18 162,-64 442,-153 294,-92 459,-164 540,-235 40,-36 117,-153 174,-267 139,-277 193,-647 110,-763 l -21,-30 -86,4 c -135,7 -224,48 -877,400 -416,225 -563,297 -607,297 -54,0 -67,40 -188,550 -62,263 -117,430 -141,430 -24,0 -28,-103 -19,-487 4,-162 2,-215 -7,-224 -7,-7 -13,-28 -13,-45 0,-74 -69,-49 -297,104 -151,103 -241,152 -279,152 -32,0 -48,-25 -40,-62 15,-77 113,-170 426,-408 283,-215 338,-270 327,-325 -4,-22 5,-31 62,-68 36,-24 136,-81 221,-127 425,-227 554,-303 690,-406 173,-130 278,-265 295,-378 14,-88 -91,-241 -199,-292 -87,-41 -163,-48 -369,-36 -165,10 -191,14 -234,36 -107,54 -173,120 -348,351 -127,167 -168,204 -207,183 -27,-13 -22,-36 17,-84 20,-24 41,-57 46,-73 21,-59 -25,-136 -133,-221 l -46,-37 44,-31 c 24,-18 44,-36 44,-42 0,-17 -87,-11 -245,16 -228,39 -334,54 -377,54 -36,0 -38,-1 -27,-21 33,-62 135,-148 274,-231 108,-65 129,-109 67,-142 -23,-12 -24,-14 -6,-19 43,-12 297,-39 544,-57 341,-25 793,-59 870,-66 36,-3 117,-12 180,-20 128,-16 156,-30 205,-97 24,-34 30,-52 30,-97 0,-65 -32,-129 -150,-299 -71,-103 -76,-107 -123,-120 -71,-18 -91,-34 -74,-60 6,-12 12,-27 12,-35 0,-21 -76,-53 -174,-73 -47,-10 -86,-20 -86,-23 0,-4 6,-15 14,-25 9,-13 33,-21 81,-26 37,-5 81,-17 98,-27 39,-22 82,-83 99,-139 11,-40 28,-58 28,-32 0,7 16,43 36,82 115,227 314,427 423,427 22,0 40,-12 80,-56 104,-114 90,-218 -55,-399 -30,-38 -54,-73 -54,-78 0,-5 12,-6 28,-3 276,56 358,58 437,12 56,-33 81,-65 99,-129 23,-82 28,-163 17,-287 -15,-172 10,-255 75,-255 23,0 40,14 94,78 36,44 74,83 83,89 45,25 84,-30 113,-162 23,-105 25,-110 34,-78 13,45 53,108 72,114 31,9 52,-19 128,-167 49,-94 84,-149 111,-173 89,-81 84,-44 -54,359 -117,341 -168,537 -181,695 -7,87 9,200 34,250 18,36 23,40 48,34 65,-16 162,-58 232,-101 85,-53 255,-217 345,-333 32,-41 61,-78 64,-82 3,-4 5,64 3,150 -5,248 7,269 164,259 57,-3 92,-2 88,4 -3,5 -10,6 -16,3 -7,-4 -8,-2 -4,4 4,7 -43,85 -107,179 -125,183 -170,266 -191,345 -17,67 -5,123 35,164 61,63 303,179 549,263 91,31 98,32 153,20 46,-9 87,-9 195,0 414,38 601,103 627,220 5,25 12,30 46,36 21,4 39,11 39,17 0,5 18,-6 40,-25 22,-18 57,-39 79,-45 112,-34 550,17 712,83 76,30 113,64 135,121 15,39 18,42 62,47 37,4 49,2 56,-11 24,-43 75,-81 132,-98 53,-15 73,-16 194,-5 435,39 615,101 644,222 5,22 13,28 46,33 37,6 43,4 67,-24 52,-62 92,-74 258,-78 259,-7 489,24 603,81 35,17 53,35 72,70 24,46 26,47 71,47 39,0 49,-4 64,-26 43,-66 181,-93 472,-94 295,0 414,34 465,134 14,26 20,29 67,29 51,0 54,-2 77,-42 27,-44 85,-83 149,-100 153,-39 556,-54 667,-26 81,22 103,38 133,99 l 26,53 45,-7 c 133,-20 114,-140 -56,-358 -44,-57 -70,-98 -60,-95 30,8 51,-24 44,-68 -8,-46 -1,-48 48,-14 41,28 107,123 183,264 56,104 108,171 133,171 9,0 56,-44 103,-98 47,-53 173,-192 280,-308 107,-115 232,-254 278,-307 46,-53 86,-97 88,-97 2,0 29,23 59,51 50,48 68,79 44,79 -5,0 -47,39 -92,87 -46,49 -153,160 -238,248 -175,180 -213,225 -264,310 -44,72 -47,117 -11,141 22,14 43,16 138,11 125,-7 206,-24 617,-132 333,-87 371,-93 423,-72 47,20 49,48 5,78 -18,12 -53,42 -78,65 -56,54 -74,60 -415,129 -387,79 -518,120 -552,171 -14,21 -13,26 5,51 46,64 116,120 397,317 336,237 332,233 290,323 -17,34 -24,62 -19,75 8,27 -7,22 -85,-31 -64,-43 -104,-79 -323,-283 -191,-178 -271,-243 -335,-275 -50,-24 -54,-24 -78,-9 -50,33 -54,101 -20,431 25,247 30,376 14,373 -8,-2 -25,19 -41,52 -14,30 -31,54 -37,53 -6,-2 -8,4 -5,12 4,8 2,15 -4,15 -5,0 -13,-10 -16,-22 -8,-31 -24,-246 -31,-448 -9,-217 -31,-464 -47,-519 -7,-24 -21,-49 -30,-54 -35,-23 -67,31 -157,266 -32,84 -70,175 -84,203 -25,49 -77,104 -98,104 -5,0 -29,-20 -54,-45 l -44,-45 55,-93 c 103,-171 172,-329 199,-451 l 6,-28 -90,7 c -89,7 -91,8 -133,50 -51,50 -120,78 -233,94 -44,7 -125,19 -181,28 -90,13 -111,13 -205,-1 -57,-8 -125,-22 -151,-30 -61,-18 -135,-61 -148,-86 -9,-17 -21,-20 -71,-20 -59,0 -61,1 -108,49 -36,37 -62,54 -102,66 -81,24 -197,36 -364,38 -126,1 -163,-3 -229,-21 -113,-31 -178,-64 -222,-111 -35,-37 -44,-41 -87,-41 -41,0 -55,6 -88,33 -61,53 -93,59 -325,64 -204,5 -214,4 -308,-21 -132,-36 -218,-79 -261,-130 -19,-22 -42,-49 -50,-58 -26,-31 -76,-23 -115,17 -64,66 -150,79 -396,61 -161,-13 -189,-18 -278,-50 -126,-45 -201,-90 -239,-142 -26,-37 -35,-42 -80,-47 -48,-6 -52,-5 -93,33 -77,71 -161,82 -444,56 -147,-14 -237,-39 -350,-96 -51,-26 -117,-85 -135,-120 -12,-23 -22,-28 -66,-32 -43,-5 -58,-1 -87,18 -19,13 -51,28 -71,34 -43,12 -191,12 -361,0 -107,-7 -137,-13 -210,-43 -97,-39 -174,-78 -210,-107 -22,-18 -45,-21 -191,-27 -291,-11 -429,27 -429,116 0,16 36,45 149,120 298,198 444,266 598,282 142,15 192,-7 404,-173 161,-126 197,-146 214,-118 13,20 -19,85 -65,135 -26,27 -54,61 -63,75 -25,36 -21,97 8,149 24,41 25,48 14,99 -15,74 -5,131 42,231 39,84 48,136 29,172 -6,10 -17,19 -25,19 -8,0 -57,-39 -107,-88 -131,-123 -192,-172 -230,-183 -42,-12 -391,-11 -483,1 -112,15 -175,38 -216,79 -21,20 -49,42 -63,49 -14,6 -33,23 -42,37 -62,95 107,393 396,700 97,103 123,151 169,320 16,61 57,191 90,290 33,99 65,209 71,245 25,140 24,137 145,256 119,116 144,159 125,208 -12,32 -29,37 -163,46 -122,8 -152,19 -144,52 5,19 -2,19 -49,1 -6,-2 -22,5 -35,16 -24,19 -24,21 -24,204 0,168 -2,187 -19,206 -11,11 -29,21 -41,21 -76,0 -96,-152 -75,-573 25,-489 19,-593 -31,-566 -16,8 -26,7 -45,-6 -58,-38 -91,-99 -392,-715 -99,-203 -159,-293 -191,-288 -9,1 -25,-3 -37,-9 -32,-18 -56,5 -102,99 -96,197 -199,601 -209,818 -4,94 -1,127 36,315 69,346 107,482 165,578 l 35,57 h -41 c -31,0 -83,-20 -208,-80 -140,-67 -175,-80 -217,-80 -39,0 -54,5 -70,23 -36,40 -43,83 -43,271 0,194 -8,232 -55,262 -20,13 -21,11 -33,-64 z m 78,-3313 c 10,-6 5,-7 -15,-4 -152,26 -146,25 -70,19 39,-3 77,-10 85,-15 z m -190,1 c -19,-4 -48,-10 -65,-14 -27,-6 -27,-5 5,8 19,8 49,14 65,14 29,0 29,-1 -5,-8 z m 258,-29 c 93,-48 179,-140 241,-261 36,-70 82,-197 80,-224 0,-6 -13,27 -28,74 -58,182 -168,333 -288,398 -62,34 -66,44 -5,13 z m -368,-1 c -8,-5 -19,-10 -25,-10 -5,0 -3,5 5,10 8,5 20,10 25,10 6,0 3,-5 -5,-10 z m -80,-38 c -91,-62 -144,-136 -173,-242 -15,-54 -17,-58 -12,-20 8,59 44,136 86,185 33,37 106,96 118,94 3,0 -5,-8 -19,-17 z m 1694,-272 c -10,-18 -21,-58 -25,-89 l -8,-56 3,55 c 2,48 32,137 42,127 2,-2 -3,-19 -12,-37 z M 2737,2508 c -2,-18 -4,-4 -4,32 0,36 2,50 4,33 2,-18 2,-48 0,-65 z m 1870,-40 c -3,-8 -6,-5 -6,6 -1,11 2,17 5,13 3,-3 4,-12 1,-19 z M 2785,2295 c 43,-126 119,-240 227,-340 40,-38 62,-61 48,-52 -46,31 -142,131 -182,191 -72,105 -140,282 -137,357 0,13 7,-5 14,-41 7,-36 21,-87 30,-115 z m 922,123 c -3,-7 -5,-2 -5,12 0,14 2,19 5,13 2,-7 2,-19 0,-25 z m 933,-37 c -1,-13 -29,45 -29,59 0,8 6,0 14,-19 8,-18 15,-36 15,-40 z m -923,-3 c -3,-8 -6,-5 -6,6 -1,11 2,17 5,13 3,-3 4,-12 1,-19 z m 968,-50 c 30,-31 33,-37 13,-24 -22,14 -66,66 -56,66 2,0 21,-19 43,-42 z m -947,-48 c 0,-22 -1,-22 -8,5 -4,17 -8,41 -8,55 0,22 1,22 8,-5 4,-16 8,-41 8,-55 z m -4,-253 c -27,-80 -124,-171 -204,-191 -14,-4 -2,5 27,18 128,60 181,149 185,309 l 2,92 3,-89 c 3,-64 -1,-103 -13,-139 z m -604,-163 c 0,-2 -9,0 -20,6 -11,6 -20,13 -20,16 0,2 9,0 20,-6 11,-6 20,-13 20,-16 z m 139,-50 c 10,-9 -35,-3 -49,6 -11,8 -7,9 15,4 17,-4 32,-8 34,-10 z m 194,-1 c -7,-2 -19,-2 -25,0 -7,3 -2,5 12,5 14,0 19,-2 13,-5 z m -75,-10 c -21,-2 -55,-2 -75,0 -21,2 -4,4 37,4 41,0 58,-2 38,-4 z"
       id="path4" />
  </g>
  <text
     xml:space="preserve"
     style="font-style:normal;font-variant:normal;font-weight:normal;font-stretch:normal;font-size:16px;line-height:1.25;font-family:'Times New Roman';-inkscape-font-specification:'Times New Roman, Normal';font-variant-ligatures:none;font-variant-caps:normal;font-variant-numeric:normal;font-variant-east-asian:normal;stroke-width:0.75"
     x="400.17328"
     y="159.35336"
     id="text3277"
     inkscape:export-filename="/home/aijjeh/Documents/GitHub/aidd_new/reports/beamer_presentations/Ijjeh_seminar_June_2022/figures/real_neuron.png"
     inkscape:export-xdpi="600"
     inkscape:export-ydpi="600"><tspan
       sodipodi:role="line"
       id="tspan3275"
       style="font-style:normal;font-variant:normal;font-weight:normal;font-stretch:normal;font-size:16px;font-family:'Times New Roman';-inkscape-font-specification:'Times New Roman, Normal';font-variant-ligatures:none;font-variant-caps:normal;font-variant-numeric:normal;font-variant-east-asian:normal;stroke-width:0.75"
       x="400.17328"
       y="159.35336">Inputs</tspan></text>
  <path
     style="fill:none;stroke:#000000;stroke-width:0.75px;stroke-linecap:butt;stroke-linejoin:miter;stroke-opacity:1;marker-end:url(#Arrow2Lend)"
     d="m 440.82697,156.237 70.6724,-5.51331"
     id="path8830"
     inkscape:export-filename="/home/aijjeh/Documents/GitHub/aidd_new/reports/beamer_presentations/Ijjeh_seminar_June_2022/figures/real_neuron.png"
     inkscape:export-xdpi="600"
     inkscape:export-ydpi="600" />
  <path
     style="fill:none;stroke:#000000;stroke-width:0.75px;stroke-linecap:butt;stroke-linejoin:miter;stroke-opacity:1;marker-end:url(#Arrow2Lend)"
     d="m 440.82697,156.237 42.75887,15.45524"
     id="path8945"
     inkscape:export-filename="/home/aijjeh/Documents/GitHub/aidd_new/reports/beamer_presentations/Ijjeh_seminar_June_2022/figures/real_neuron.png"
     inkscape:export-xdpi="600"
     inkscape:export-ydpi="600" />
  <path
     style="fill:none;stroke:#000000;stroke-width:0.75px;stroke-linecap:butt;stroke-linejoin:miter;stroke-opacity:1;marker-end:url(#Arrow2Lend)"
     d="m 440.82697,156.237 31.46061,24.88039"
     id="path9060"
     inkscape:export-filename="/home/aijjeh/Documents/GitHub/aidd_new/reports/beamer_presentations/Ijjeh_seminar_June_2022/figures/real_neuron.png"
     inkscape:export-xdpi="600"
     inkscape:export-ydpi="600" />
  <path
     style="fill:none;stroke:#000000;stroke-width:0.75px;stroke-linecap:butt;stroke-linejoin:miter;stroke-opacity:1;marker-end:url(#Arrow2Lend)"
     d="m 440.82697,156.237 32.99376,63.69571"
     id="path9175"
     inkscape:export-filename="/home/aijjeh/Documents/GitHub/aidd_new/reports/beamer_presentations/Ijjeh_seminar_June_2022/figures/real_neuron.png"
     inkscape:export-xdpi="600"
     inkscape:export-ydpi="600" />
  <text
     xml:space="preserve"
     style="font-style:normal;font-variant:normal;font-weight:normal;font-stretch:normal;font-size:16px;line-height:1.25;font-family:'Times New Roman';-inkscape-font-specification:'Times New Roman, Normal';font-variant-ligatures:none;font-variant-caps:normal;font-variant-numeric:normal;font-variant-east-asian:normal;stroke-width:0.75"
     x="586.71002"
     y="291.62378"
     id="text3277-1"
     inkscape:export-filename="/home/aijjeh/Documents/GitHub/aidd_new/reports/beamer_presentations/Ijjeh_seminar_June_2022/figures/real_neuron.png"
     inkscape:export-xdpi="600"
     inkscape:export-ydpi="600"><tspan
       sodipodi:role="line"
       id="tspan3275-8"
       style="font-style:normal;font-variant:normal;font-weight:normal;font-stretch:normal;font-size:16px;font-family:'Times New Roman';-inkscape-font-specification:'Times New Roman, Normal';font-variant-ligatures:none;font-variant-caps:normal;font-variant-numeric:normal;font-variant-east-asian:normal;stroke-width:0.75"
       x="586.71002"
       y="291.62378">Processing</tspan></text>
  <path
     style="fill:none;stroke:#000000;stroke-width:0.75px;stroke-linecap:butt;stroke-linejoin:miter;stroke-opacity:1;marker-end:url(#Arrow2Lend)"
     d="M 605.68844,279.35435 562.93708,242.90998"
     id="path9853"
     inkscape:export-filename="/home/aijjeh/Documents/GitHub/aidd_new/reports/beamer_presentations/Ijjeh_seminar_June_2022/figures/real_neuron.png"
     inkscape:export-xdpi="600"
     inkscape:export-ydpi="600" />
  <text
     xml:space="preserve"
     style="font-style:normal;font-variant:normal;font-weight:normal;font-stretch:normal;font-size:16px;line-height:1.25;font-family:'Times New Roman';-inkscape-font-specification:'Times New Roman, Normal';font-variant-ligatures:none;font-variant-caps:normal;font-variant-numeric:normal;font-variant-east-asian:normal;stroke-width:0.75"
     x="772.9718"
     y="197.63701"
     id="text3277-5"
     inkscape:export-filename="/home/aijjeh/Documents/GitHub/aidd_new/reports/beamer_presentations/Ijjeh_seminar_June_2022/figures/real_neuron.png"
     inkscape:export-xdpi="600"
     inkscape:export-ydpi="600"><tspan
       sodipodi:role="line"
       id="tspan3275-1"
       style="font-style:normal;font-variant:normal;font-weight:normal;font-stretch:normal;font-size:16px;font-family:'Times New Roman';-inkscape-font-specification:'Times New Roman, Normal';font-variant-ligatures:none;font-variant-caps:normal;font-variant-numeric:normal;font-variant-east-asian:normal;stroke-width:0.75"
       x="772.9718"
       y="197.63701">Outputs</tspan></text>
  <path
     style="fill:none;stroke:#000000;stroke-width:0.75px;stroke-linecap:butt;stroke-linejoin:miter;stroke-opacity:1;marker-end:url(#Arrow2Lend)"
     d="m 713.59496,186.24681 53.75181,3.85769"
     id="path12493"
     inkscape:export-filename="/home/aijjeh/Documents/GitHub/aidd_new/reports/beamer_presentations/Ijjeh_seminar_June_2022/figures/real_neuron.png"
     inkscape:export-xdpi="600"
     inkscape:export-ydpi="600" />
  <path
     style="fill:none;stroke:#000000;stroke-width:0.75px;stroke-linecap:butt;stroke-linejoin:miter;stroke-opacity:1;marker-end:url(#Arrow2Lend)"
     d="m 731.33349,194.4116 36.70698,2.1148"
     id="path12495"
     inkscape:export-filename="/home/aijjeh/Documents/GitHub/aidd_new/reports/beamer_presentations/Ijjeh_seminar_June_2022/figures/real_neuron.png"
     inkscape:export-xdpi="600"
     inkscape:export-ydpi="600" />
  <path
     style="fill:none;stroke:#000000;stroke-width:0.75px;stroke-linecap:butt;stroke-linejoin:miter;stroke-opacity:1;marker-end:url(#Arrow2Lend)"
     d="m 737.12826,216.40878 31.49518,-16.39911"
     id="path12497"
     inkscape:export-filename="/home/aijjeh/Documents/GitHub/aidd_new/reports/beamer_presentations/Ijjeh_seminar_June_2022/figures/real_neuron.png"
     inkscape:export-xdpi="600"
     inkscape:export-ydpi="600" />
  <path
     style="fill:none;stroke:#000000;stroke-width:0.75px;stroke-linecap:butt;stroke-linejoin:miter;stroke-opacity:1;marker-end:url(#Arrow2Lend)"
     d="M 728.26703,232.0022 774.2111,204.37456"
     id="path12499"
     inkscape:export-filename="/home/aijjeh/Documents/GitHub/aidd_new/reports/beamer_presentations/Ijjeh_seminar_June_2022/figures/real_neuron.png"
     inkscape:export-xdpi="600"
     inkscape:export-ydpi="600" />
  <path
     style="fill:#00d400;fill-opacity:1;stroke:none;stroke-width:0.933333;stroke-linecap:round;stroke-linejoin:round;stroke-opacity:0.990106;paint-order:stroke fill markers"
     id="path13683"
     sodipodi:type="arc"
     sodipodi:cx="336.71332"
     sodipodi:cy="484.20743"
     sodipodi:rx="12.310965"
     sodipodi:ry="15.425955"
     sodipodi:start="3.1368105"
     sodipodi:end="3.1315047"
     sodipodi:open="true"
     sodipodi:arc-type="arc"
     d="m 324.40249,484.2812 a 12.310965,15.425955 0 0 1 12.23562,-15.49944 12.310965,15.425955 0 0 1 12.38583,15.31098 12.310965,15.425955 0 0 1 -12.20276,15.54005 12.310965,15.425955 0 0 1 -12.4182,-15.26975"
     transform="rotate(-32.374159)" />
</svg>
