<svg xmlns="http://www.w3.org/2000/svg" width="2464" height="1264" style="cursor: move;"><g transform="translate(-41.75350712936131,13.14864077209893) scale(1.0762401247837976)"><path class="link" marker-end="url(#arrow)" d="M1090,592.5, 1253,559.5" style="stroke-width: 0.67; stroke-opacity: 1; stroke: rgb(80, 80, 80);"></path><path class="link" marker-end="url(#arrow)" d="M1090,592.5, 1253,590.5" style="stroke-width: 0.67; stroke-opacity: 1; stroke: rgb(80, 80, 80);"></path><path class="link" marker-end="url(#arrow)" d="M1090,592.5, 1253,621.5" style="stroke-width: 0.67; stroke-opacity: 1; stroke: rgb(80, 80, 80);"></path><path class="link" marker-end="url(#arrow)" d="M1090,592.5, 1253,652.5" style="stroke-width: 0.67; stroke-opacity: 1; stroke: rgb(80, 80, 80);"></path><path class="link" marker-end="url(#arrow)" d="M1090,592.5, 1253,683.5" style="stroke-width: 0.67; stroke-opacity: 1; stroke: rgb(80, 80, 80);"></path><path class="link" marker-end="url(#arrow)" d="M1090,621.5, 1253,559.5" style="stroke-width: 0.67; stroke-opacity: 1; stroke: rgb(80, 80, 80);"></path><path class="link" marker-end="url(#arrow)" d="M1090,621.5, 1253,590.5" style="stroke-width: 0.67; stroke-opacity: 1; stroke: rgb(80, 80, 80);"></path><path class="link" marker-end="url(#arrow)" d="M1090,621.5, 1253,621.5" style="stroke-width: 0.67; stroke-opacity: 1; stroke: rgb(80, 80, 80);"></path><path class="link" marker-end="url(#arrow)" d="M1090,621.5, 1253,652.5" style="stroke-width: 0.67; stroke-opacity: 1; stroke: rgb(80, 80, 80);"></path><path class="link" marker-end="url(#arrow)" d="M1090,621.5, 1253,683.5" style="stroke-width: 0.67; stroke-opacity: 1; stroke: rgb(80, 80, 80);"></path><path class="link" marker-end="url(#arrow)" d="M1090,650.5, 1253,559.5" style="stroke-width: 0.67; stroke-opacity: 1; stroke: rgb(80, 80, 80);"></path><path class="link" marker-end="url(#arrow)" d="M1090,650.5, 1253,590.5" style="stroke-width: 0.67; stroke-opacity: 1; stroke: rgb(80, 80, 80);"></path><path class="link" marker-end="url(#arrow)" d="M1090,650.5, 1253,621.5" style="stroke-width: 0.67; stroke-opacity: 1; stroke: rgb(80, 80, 80);"></path><path class="link" marker-end="url(#arrow)" d="M1090,650.5, 1253,652.5" style="stroke-width: 0.67; stroke-opacity: 1; stroke: rgb(80, 80, 80);"></path><path class="link" marker-end="url(#arrow)" d="M1090,650.5, 1253,683.5" style="stroke-width: 0.67; stroke-opacity: 1; stroke: rgb(80, 80, 80);"></path><path class="link" marker-end="url(#arrow)" d="M1253,559.5, 1416,621.5" style="stroke-width: 0.67; stroke-opacity: 1; stroke: rgb(80, 80, 80);"></path><path class="link" marker-end="url(#arrow)" d="M1253,590.5, 1416,621.5" style="stroke-width: 0.67; stroke-opacity: 1; stroke: rgb(80, 80, 80);"></path><path class="link" marker-end="url(#arrow)" d="M1253,621.5, 1416,621.5" style="stroke-width: 0.67; stroke-opacity: 1; stroke: rgb(80, 80, 80);"></path><path class="link" marker-end="url(#arrow)" d="M1253,652.5, 1416,621.5" style="stroke-width: 0.67; stroke-opacity: 1; stroke: rgb(80, 80, 80);"></path><path class="link" marker-end="url(#arrow)" d="M1253,683.5, 1416,621.5" style="stroke-width: 0.67; stroke-opacity: 1; stroke: rgb(80, 80, 80);"></path><circle r="10.5" class="node" id="0_0" cx="1090" cy="592.5" style="fill: rgb(63, 46, 194); stroke: rgb(93, 65, 65);"></circle><circle r="10.5" class="node" id="0_1" cx="1090" cy="621.5" style="fill: rgb(63, 46, 194); stroke: rgb(93, 65, 65);"></circle><circle r="10.5" class="node" id="0_2" cx="1090" cy="650.5" style="fill: rgb(63, 46, 194); stroke: rgb(93, 65, 65);"></circle><circle r="10.5" class="node" id="1_0" cx="1253" cy="559.5" style="fill: rgb(63, 46, 194); stroke: rgb(93, 65, 65);"></circle><circle r="10.5" class="node" id="1_1" cx="1253" cy="590.5" style="fill: rgb(63, 46, 194); stroke: rgb(93, 65, 65);"></circle><circle r="10.5" class="node" id="1_2" cx="1253" cy="621.5" style="fill: rgb(63, 46, 194); stroke: rgb(93, 65, 65);"></circle><circle r="10.5" class="node" id="1_3" cx="1253" cy="652.5" style="fill: rgb(63, 46, 194); stroke: rgb(93, 65, 65);"></circle><circle r="10.5" class="node" id="1_4" cx="1253" cy="683.5" style="fill: rgb(63, 46, 194); stroke: rgb(93, 65, 65);"></circle><circle r="10.5" class="node" id="2_0" cx="1416" cy="621.5" style="fill: rgb(63, 46, 194); stroke: rgb(93, 65, 65);"></circle><text class="text" dy=".35em" x="1055" y="724.5" style="font-size: 12px;">Input Layer ∈ ℝ³</text><text class="text" dy=".35em" x="1218" y="724.5" style="font-size: 12px;">Hidden Layer ∈ ℝ⁵</text><text class="text" dy=".35em" x="1381" y="724.5" style="font-size: 12px;">Output Layer ∈ ℝ¹</text></g><defs><marker id="arrow" viewBox="0 -5 10 10" markerWidth="7" markerHeight="7" orient="auto" refX="41.4"><path d="M0,-5L10,0L0,5" style="stroke: rgb(80, 80, 80); fill: rgb(80, 80, 80);"></path></marker></defs></svg>